<svg xmlns="http://www.w3.org/2000/svg" version="1.1" xmlns:xlink="http://www.w3.org/1999/xlink" xmlns:svgjs="http://svgjs.dev/svgjs" width="2000" height="848" viewBox="0 0 2000 848"><g transform="matrix(1,0,0,1,-1.2121212121212466,-0.6629806949763406)"><svg viewBox="0 0 396 168" data-background-color="#ffffff" preserveAspectRatio="xMidYMid meet" height="848" width="2000" xmlns="http://www.w3.org/2000/svg" xmlns:xlink="http://www.w3.org/1999/xlink"><g id="tight-bounds" transform="matrix(1,0,0,1,0.2400000000000091,0.13134523202361947)"><svg viewBox="0 0 395.52 167.7373095359527" height="167.7373095359527" width="395.52"><g><svg viewBox="0 0 397.4975999999999 168.57599608363245" height="167.7373095359527" width="395.52"><g><rect width="397.4975999999999" height="5.163260110872517" x="0" y="92.64195676048772" fill="#f4a424" opacity="1" stroke-width="0" stroke="transparent" fill-opacity="1" class="rect-qz-0" data-fill-palette-color="secondary" rx="1%" id="qz-0" data-palette-color="#f4a424"></rect></g><g transform="matrix(1,0,0,1,0.9887999999999693,111.3216045961574)"><svg viewBox="0 0 395.52 57.25439148747507" height="57.25439148747507" width="395.52"><g id="textblocktransform"><svg viewBox="0 0 395.52 57.25439148747507" height="57.25439148747507" width="395.52" id="textblock"><g><svg viewBox="0 0 395.52 57.25439148747507" height="57.25439148747507" width="395.52"><g transform="matrix(1,0,0,1,0,0)"><svg width="395.52" viewBox="4.7 -32.3 225.53 32.65" height="57.25439148747507" data-palette-color="#ffffff"><path d="M29.5-32.15L29.25-9.4 29.35 0 25.15 0 8.55-25.65 8.3-25.65 8.25-10.55 8.3 0 4.7 0 4.85-9.5 4.75-32.05 8.9-32.05 25.45-6.4 25.8-6.4 25.75-31.85 29.5-32.15ZM47.2-3L53.85-3.2 54.15-2.9 53.8 0 38.65 0 38.8-7.5 38.65-24.9 53.9-24.9 54.15-24.6 53.85-21.7 47.55-21.9 42.35-21.85 42.3-14.3 47.25-14.25 51.6-14.4 51.85-14.05 51.55-11.1 46.95-11.25 42.3-11.2 42.25-7.8 42.3-3.05 47.2-3ZM79.5-24.9L71.15-13 80.09 0 75.59 0 74.45-2.15 68.65-10.1 62.6-1.95 61.5 0 57.55 0 66.45-12.5 57.8-24.9 62.45-24.9 63.5-22.8 68.95-15.35 74.4-22.85 75.45-24.9 79.5-24.9ZM101.29-24.9L101.49-24.6 101.24-21.45 96.59-21.8 94.09-21.8 93.94-7.8 94.09 0 90.34 0 90.49-7.5 90.39-21.8 87.89-21.8 83.14-21.45 82.84-21.8 83.14-24.9 101.29-24.9ZM113.14-15L113.49-14.65 113.49-12.15 101.44-10.4 101.04-10.8 101.04-13.3 113.14-15ZM128.29-32.3Q131.74-32.3 135.44-30.8L135.44-30.8 134.79-26.95 134.09-26.75Q132.64-27.85 131.01-28.45 129.39-29.05 127.79-29.05L127.79-29.05Q125.94-29.05 124.56-28.3 123.19-27.55 122.46-26.35 121.74-25.15 121.74-23.85L121.74-23.85Q121.74-22.5 122.56-21.48 123.39-20.45 124.64-19.7 125.89-18.95 128.04-17.9L128.04-17.9Q130.74-16.65 132.39-15.58 134.04-14.5 135.21-12.85 136.39-11.2 136.39-8.85L136.39-8.85Q136.39-6.35 135.04-4.25 133.69-2.15 131.24-0.9 128.79 0.35 125.64 0.35L125.64 0.35Q123.54 0.35 121.26-0.23 118.99-0.8 117.04-1.9L117.04-1.9 117.54-6 118.09-6.25Q119.84-4.55 121.96-3.73 124.09-2.9 126.04-2.9L126.04-2.9Q127.94-2.9 129.41-3.65 130.89-4.4 131.66-5.65 132.44-6.9 132.44-8.3L132.44-8.3Q132.44-10.4 130.84-11.68 129.24-12.95 125.99-14.45L125.99-14.45Q123.34-15.75 121.74-16.78 120.14-17.8 118.99-19.43 117.84-21.05 117.84-23.4L117.84-23.4Q117.84-25.85 119.16-27.9 120.49-29.95 122.86-31.13 125.24-32.3 128.29-32.3L128.29-32.3ZM157.78-24.9L157.98-24.6 157.73-21.45 153.08-21.8 150.58-21.8 150.43-7.8 150.58 0 146.83 0 146.98-7.5 146.88-21.8 144.38-21.8 139.63-21.45 139.33-21.8 139.63-24.9 157.78-24.9ZM171.88-25.2Q177.33-25.2 180.26-22 183.18-18.8 183.18-12.95L183.18-12.95Q183.18-6.6 180.06-3.13 176.93 0.35 171.13 0.35L171.13 0.35Q165.73 0.35 162.78-2.93 159.83-6.2 159.83-12.25L159.83-12.25Q159.83-18.45 162.98-21.83 166.13-25.2 171.88-25.2L171.88-25.2ZM171.53-22.05Q167.58-22.05 165.66-19.8 163.73-17.55 163.73-12.7L163.73-12.7Q163.73-7.5 165.63-5.15 167.53-2.8 171.43-2.8L171.43-2.8Q175.43-2.8 177.38-5.1 179.33-7.4 179.33-12.3L179.33-12.3Q179.33-17.35 177.41-19.7 175.48-22.05 171.53-22.05L171.53-22.05ZM201.38-10.05Q204.43-5.4 208.13-0.9L208.13-0.9 208.08-0.4Q205.98 0.25 204.63 0.35L204.63 0.35 203.98-0.05Q200.18-5.8 198.23-9.1L198.23-9.1 193.53-9.05 193.53-7.8 193.63 0 189.93 0 190.08-7.5 189.93-24.9 198.43-24.95Q202.38-24.95 204.5-23.1 206.63-21.25 206.63-17.75L206.63-17.75Q206.63-15.2 205.25-13.2 203.88-11.2 201.38-10.05L201.38-10.05ZM193.63-21.9L193.58-12.15 198.28-12Q202.73-13.25 202.73-17.45L202.73-17.45Q202.73-19.65 201.43-20.75 200.13-21.85 197.48-21.95L197.48-21.95 193.63-21.9ZM223.28-3L229.93-3.2 230.23-2.9 229.88 0 214.73 0 214.88-7.5 214.73-24.9 229.98-24.9 230.23-24.6 229.93-21.7 223.63-21.9 218.43-21.85 218.38-14.3 223.33-14.25 227.68-14.4 227.93-14.05 227.63-11.1 223.03-11.25 218.38-11.2 218.33-7.8 218.38-3.05 223.28-3Z" opacity="1" transform="matrix(1,0,0,1,0,0)" fill="#ffffff" class="wordmark-text-0" data-fill-palette-color="primary" id="text-0"></path></svg></g></svg></g></svg></g></svg></g><g transform="matrix(1,0,0,1,104.90515209587991,0)"><svg viewBox="0 0 187.6872958082401 79.12556903569055" height="79.12556903569055" width="187.6872958082401"><g><svg xmlns="http://www.w3.org/2000/svg" xmlns:xlink="http://www.w3.org/1999/xlink" version="1.1" x="8" y="0" viewBox="0.191 27.762 99.809 45.99900000000001" enable-background="new 0 0 100 100" xml:space="preserve" height="79.12556903569055" width="171.6872958082401" class="icon-icon-0" data-fill-palette-color="accent" id="icon-0"><g fill="#ff9902" data-fill-palette-color="accent"><path fill="#ff9902" d="M95.009 48.701v-7.378H78.573v-0.108L50.096 27.762 21.617 41.323H5.182v7.378L0.191 53.8h4.99v16.219h16.436v3.742h9.493v-3.742h12.748V58.789h4.991v11.229h1.247 1.247V58.789h4.991v11.229h12.747v3.742h9.492v-3.742h16.436V53.8H100L95.009 48.701zM18.905 65.027h-9.98V53.8h9.98V65.027zM20.153 45.066H8.925v-1.248h11.229V45.066zM41.362 65.027h-9.981V53.8h9.981V65.027zM56.334 56.294H43.857V53.8h12.477V56.294zM68.81 65.027h-9.98V53.8h9.98V65.027zM25.144 43.818l2.496-1.248h44.914l2.495 1.248H25.144zM91.267 65.027h-9.98V53.8h9.98V65.027zM91.267 45.066H80.039v-1.248h11.228V45.066z" data-fill-palette-color="accent"></path></g></svg></g></svg></g><g><rect width="28.372032095879945" height="5.163260110872517" y="72.96230892481803" x="292.59244790412004" fill="#f4a424" data-fill-palette-color="secondary"></rect><rect width="28.372032095879945" height="5.163260110872517" y="72.96230892481803" x="76.53311999999997" fill="#f4a424" data-fill-palette-color="secondary"></rect></g></svg></g><defs></defs></svg><rect width="395.52" height="167.7373095359527" fill="none" stroke="none" visibility="hidden"></rect></g></svg></g></svg>