<svg width="24" height="24" viewBox="0 0 24 24" fill="none" xmlns="http://www.w3.org/2000/svg">
<g id="&#208;&#152;&#208;&#186;&#208;&#190;&#208;&#189;&#208;&#186;&#208;&#184; 24x24">
<path id="Union" fill-rule="evenodd" clip-rule="evenodd" d="M21.8393 6.05639C22.0314 4.8917 20.8651 3.97177 19.7772 4.42984L2.67692 11.63C1.4845 12.132 1.4234 13.8558 2.67777 14.3758C3.60586 14.7605 5.02623 15.3246 6.45074 15.7943C7.61921 16.1795 8.89299 16.5371 9.91342 16.6383C10.1928 16.9725 10.5444 17.2935 10.9016 17.5872C11.4486 18.0371 12.1073 18.5012 12.7872 18.9455C14.1488 19.8352 15.6596 20.6865 16.6779 21.2396C17.8948 21.9006 19.3516 21.1395 19.5704 19.8131L21.8393 6.05639ZM4.59474 12.9925L19.7185 6.62459L17.6008 19.4649C16.6023 18.9219 15.1629 18.1087 13.8812 17.2713C13.2328 16.8475 12.6406 16.4279 12.1719 16.0425C12.005 15.9052 11.8637 15.7802 11.746 15.6683L15.7071 11.7071C16.0976 11.3166 16.0976 10.6834 15.7071 10.2929C15.3166 9.90237 14.6834 9.90237 14.2929 10.2929L9.95465 14.6311C9.22122 14.5373 8.19877 14.2647 7.07698 13.8949C6.21367 13.6102 5.34563 13.2869 4.59474 12.9925Z" fill="white"/>
</g>
</svg>
